#!OML:ASF E:\Style4\Style4.ASF
:FULLY-SPECIFIED
:DEGREES
500
root 0.201357 16.6099 -1.38276 7.82633 -3.58348 2.40095
lowerback 13.5639 1.9067 -1.47135
upperback 1.15823 2.30679 0.111516
thorax -6.44584 1.16636 0.513046
lowerneck 3.99422 -3.63586 -5.69093
upperneck -4.45772 -5.02636 3.54236
head -1.86136 -2.50265 2.25169
rclavicle -9.44227e-015 2.38542e-015
rhumerus -6.03937 23.4271 -59.3902
rradius 62.7665
rwrist -48.7637
rhand -12.0008 23.6879
rfingers 7.12502
rthumb 14.0563 -5.8168
lclavicle -9.44227e-015 2.38542e-015
lhumerus -11.1014 -25.8303 60.6487
lradius 71.3632
lwrist 50.8377
lhand 1.97802 22.1281
lfingers 7.12502
lthumb 27.4836 50.1426
rfemur -36.9899 4.00397 14.674
rtibia 58.2642
rfoot -26.6663 -13.8714
rtoes -15.6246
lfemur -35.2022 0.123168 -22.2841
ltibia 57.3819
lfoot -28.6203 9.59989
ltoes -17.8214
501
root 0.201873 16.6119 -1.37751 7.87083 -3.60544 2.4956
lowerback 13.4985 1.927 -1.57076
upperback 1.11446 2.31819 0.0868201
thorax -6.45918 1.17471 0.542011
lowerneck 4.01893 -3.64369 -5.68006
upperneck -4.46175 -5.03879 3.51477
head -1.86731 -2.50842 2.24178
rclavicle -1.19271e-015 4.37326e-015
rhumerus -6.27648 22.6678 -58.5772
rradius 62.6509
rwrist -48.882
rhand -11.7154 23.6287
rfingers 7.12502
rthumb 14.3313 -5.85666
lclavicle -1.19271e-015 4.37326e-015
lhumerus -11.4539 -24.7652 59.9725
lradius 71.1836
lwrist 50.966
lhand 1.90275 22.619
lfingers 7.12502
lthumb 27.4116 50.6449
rfemur -37.0167 4.00999 14.5528
rtibia 58.2092
rfoot -26.6775 -13.8023
rtoes -15.4323
lfemur -35.1465 0.10377 -22.4009
ltibia 57.2782
lfoot -28.6912 9.53756
ltoes -17.5587
502
root 0.20147 16.6164 -1.37116 7.91456 -3.58228 2.52294
lowerback 13.4327 1.93339 -1.59261
upperback 1.07802 2.32365 0.0726868
thorax -6.4617 1.17813 0.539732
lowerneck 3.97375 -3.65439 -5.67519
upperneck -4.41015 -5.04989 3.53119
head -1.84149 -2.51474 2.24375
rclavicle -2.15681e-014 7.95139e-016
rhumerus -6.53894 21.9177 -57.7765
rradius 62.4986
rwrist -49.0675
rhand -11.4381 23.4864
rfingers 7.12502
rthumb 14.5985 -5.97986
lclavicle -2.15681e-014 7.95139e-016
lhumerus -11.8017 -23.8757 59.2284
lradius 71.0296
lwrist 51.2007
lhand 2.14234 22.9578
lfingers 7.12502
lthumb 27.6407 50.9473
rfemur -37.0101 4.00444 14.5206
rtibia 58.14
rfoot -26.642 -13.8189
rtoes -15.6709
lfemur -35.0819 0.0458432 -22.4327
ltibia 57.1557
lfoot -28.6686 9.54478
ltoes -17.4168
503
root 0.20079 16.6225 -1.36374 7.93573 -3.55114 2.51537
lowerback 13.3742 1.92825 -1.59642
upperback 1.06477 2.31796 0.0802412
thorax -6.44352 1.1757 0.552526
lowerneck 3.90499 -3.66604 -5.73566
upperneck -4.36404 -5.06237 3.59997
head -1.81073 -2.52176 2.27406
rclavicle -1.14301e-014 0
rhumerus -6.77873 21.0807 -57.004
rradius 62.3112
rwrist -49.1958
rhand -11.086 23.3674
rfingers 7.12502
rthumb 14.9377 -6.07397
lclavicle -1.14301e-014 0
lhumerus -12.1729 -22.9926 58.4258
lradius 70.8939
lwrist 51.3246
lhand 2.48064 23.0592
lfingers 7.12502
lthumb 27.9642 50.9964
rfemur -36.9462 3.99921 14.533
rtibia 58.0634
rfoot -26.6726 -13.8199
rtoes -15.8322
lfemur -35.011 0.00241666 -22.4196
ltibia 57.0377
lfoot -28.6372 9.6314
ltoes -17.6115
504
root 0.200741 16.6301 -1.35272 7.91093 -3.54662 2.48029
lowerback 13.3154 1.93215 -1.5831
upperback 1.0725 2.32738 0.0959265
thorax -6.4029 1.18008 0.561837
lowerneck 3.87651 -3.66676 -5.75556
upperneck -4.33406 -5.06096 3.64666
head -1.7945 -2.52203 2.29132
rclavicle -1.49089e-014 -2.78299e-015
rhumerus -7.01852 20.238 -56.2248
rradius 62.0707
rwrist -49.2318
rhand -10.7625 23.2858
rfingers 7.12502
rthumb 15.2493 -6.13213
lclavicle -1.49089e-014 -2.78299e-015
lhumerus -12.5266 -22.1324 57.5979
lradius 70.7149
lwrist 51.3934
lhand 2.536 23.3074
lfingers 7.12502
lthumb 28.0171 51.2359
rfemur -36.803 4.03592 14.5733
rtibia 57.9747
rfoot -26.6992 -13.8982
rtoes -15.8418
lfemur -34.8907 -0.0214492 -22.3815
ltibia 56.9315
lfoot -28.6295 9.68812
ltoes -17.8354
505
root 0.201774 16.6362 -1.34427 7.93207 -3.52314 2.42392
lowerback 13.2643 1.93908 -1.52088
upperback 1.04461 2.34769 0.1103
thorax -6.40268 1.18873 0.539209
lowerneck 3.87979 -3.67388 -5.77583
upperneck -4.31085 -5.07022 3.68511
head -1.78581 -2.52752 2.30731
rclavicle -5.96354e-016 -2.38542e-015
rhumerus -7.30912 19.4404 -55.4311
rradius 61.8078
rwrist -49.2644
rhand -10.572 23.2229
rfingers 7.12502
rthumb 15.4328 -6.18102
lclavicle -5.96354e-016 -2.38542e-015
lhumerus -12.8851 -21.3497 56.8046
lradius 70.5635
lwrist 51.4365
lhand 2.31508 23.5457
lfingers 7.12502
lthumb 27.8059 51.5085
rfemur -36.6893 4.03049 14.6276
rtibia 57.8975
rfoot -26.6494 -13.7866
rtoes -15.4651
lfemur -34.8527 -0.0301365 -22.3211
ltibia 56.8515
lfoot -28.5852 9.68766
ltoes -17.8216
506
root 0.201537 16.6407 -1.33778 7.97157 -3.50779 2.40574
lowerback 13.2494 1.95496 -1.49702
upperback 0.991217 2.37211 0.105539
thorax -6.4505 1.20039 0.515533
lowerneck 3.82196 -3.68646 -5.82647
upperneck -4.22748 -5.08435 3.75233
head -1.74503 -2.53586 2.33484
rclavicle 3.25013e-014 -1.19271e-015
rhumerus -7.66821 18.6645 -54.6516
rradius 61.5823
rwrist -49.5025
rhand -10.336 23.1093
rfingers 7.12502
rthumb 15.66 -6.2769
lclavicle 3.25013e-014 -1.19271e-015
lhumerus -13.3215 -20.6164 56.0165
lradius 70.4836
lwrist 51.5425
lhand 2.09866 23.5797
lfingers 7.12502
lthumb 27.5989 51.5759
rfemur -36.6119 4.08481 14.6189
rtibia 57.8183
rfoot -26.7286 -13.3982
rtoes -14.501
lfemur -34.8357 -0.0204687 -22.2998
ltibia 56.7777
lfoot -28.5386 9.67505
ltoes -17.8612
507
root 0.202299 16.6455 -1.33064 8.00065 -3.43526 2.38601
lowerback 13.2568 1.96574 -1.41837
upperback 0.930423 2.39582 0.0757091
thorax -6.51521 1.20979 0.433809
lowerneck 3.79744 -3.70478 -5.78779
upperneck -4.16552 -5.10372 3.79902
head -1.71924 -2.54773 2.34127
rclavicle -3.27995e-015 -6.36111e-015
rhumerus -8.14329 17.8542 -53.922
rradius 61.4014
rwrist -49.901
rhand -10.1535 22.8255
rfingers 7.12502
rthumb 15.8359 -6.54691
lclavicle -3.27995e-015 -6.36111e-015
lhumerus -13.7047 -19.9839 55.201
lradius 70.3145
lwrist 51.7778
lhand 1.9603 23.4418
lfingers 7.12502
lthumb 27.4666 51.459
rfemur -36.5644 4.08041 14.6311
rtibia 57.6913
rfoot -26.874 -13.3853
rtoes -14.2209
lfemur -34.812 -0.0697343 -22.2771
ltibia 56.713
lfoot -28.5551 9.66155
ltoes -17.8341
508
root 0.203284 16.6504 -1.32191 8.03638 -3.35287 2.36354
lowerback 13.2029 1.97005 -1.35123
upperback 0.906201 2.41133 0.0594937
thorax -6.50768 1.21542 0.377295
lowerneck 3.78094 -3.71884 -5.71941
upperneck -4.17454 -5.11675 3.81985
head -1.71949 -2.55564 2.33577
rclavicle 7.05686e-015 4.77083e-015
rhumerus -8.59874 16.9713 -53.2108
rradius 61.2378
rwrist -50.1406
rhand -9.97816 22.5408
rfingers 7.12502
rthumb 16.0047 -6.81805
lclavicle 7.05686e-015 4.77083e-015
lhumerus -14.0657 -19.2558 54.4325
lradius 70.0824
lwrist 51.9016
lhand 1.98898 23.3911
lfingers 7.12502
lthumb 27.494 51.404
rfemur -36.5139 4.03136 14.6649
rtibia 57.5582
rfoot -26.9033 -13.5759
rtoes -14.4142
lfemur -34.7709 -0.147195 -22.2441
ltibia 56.6456
lfoot -28.6432 9.57472
ltoes -17.5173
509
root 0.202198 16.6542 -1.31423 8.0861 -3.31454 2.34146
lowerback 13.1215 1.9674 -1.36588
upperback 0.892683 2.40864 0.0824444
thorax -6.47817 1.21503 0.41268
lowerneck 3.78596 -3.72099 -5.69415
upperneck -4.22276 -5.11983 3.77929
head -1.73731 -2.55619 2.31929
rclavicle -2.03754e-014 -7.15625e-015
rhumerus -9.0141 16.0634 -52.5406
rradius 61.0102
rwrist -50.0743
rhand -9.78958 22.399
rfingers 7.12502
rthumb 16.1863 -6.94522
lclavicle -2.03754e-014 -7.15625e-015
lhumerus -14.484 -18.3792 53.7174
lradius 69.8346
lwrist 51.9708
lhand 2.1792 23.552
lfingers 7.12502
lthumb 27.676 51.5358
rfemur -36.4793 4.03025 14.693
rtibia 57.4548
rfoot -26.8335 -13.6713
rtoes -14.3558
lfemur -34.7531 -0.174714 -22.2094
ltibia 56.5827
lfoot -28.6307 9.48983
ltoes -17.1896
510
root 0.200127 16.6562 -1.30585 8.13937 -3.28952 2.28976
lowerback 13.0711 1.96432 -1.38937
upperback 0.850102 2.40584 0.139546
thorax -6.49878 1.21553 0.487362
lowerneck 3.81415 -3.71307 -5.74658
upperneck -4.26189 -5.11493 3.74504
head -1.75502 -2.55185 2.31921
rclavicle 1.42131e-014 2.38542e-015
rhumerus -9.43872 15.2515 -51.8806
rradius 60.7147
rwrist -50.0058
rhand -9.62857 22.2353
rfingers 7.12502
rthumb 16.3413 -7.09624
lclavicle 1.42131e-014 2.38542e-015
lhumerus -15.0132 -17.5134 53.0391
lradius 69.627
lwrist 51.9855
lhand 2.31383 23.7181
lfingers 7.12502
lthumb 27.8047 51.6812
rfemur -36.4594 4.05736 14.7515
rtibia 57.379
rfoot -26.8161 -13.6767
rtoes -14.2014
lfemur -34.7435 -0.175278 -22.1479
ltibia 56.519
lfoot -28.5509 9.46666
ltoes -17.1385
511
root 0.199547 16.6591 -1.29748 8.19244 -3.24298 2.29182
lowerback 13.0517 1.98577 -1.41909
upperback 0.796077 2.43128 0.155178
thorax -6.54792 1.22949 0.515313
lowerneck 3.76767 -3.72552 -5.71517
upperneck -4.20886 -5.13016 3.69035
head -1.73046 -2.55884 2.29294
rclavicle 6.85807e-015 3.97569e-016
rhumerus -9.92877 14.4837 -51.169
rradius 60.4148
rwrist -50.0883
rhand -9.57351 22.1002
rfingers 7.12502
rthumb 16.3943 -7.22698
lclavicle 6.85807e-015 3.97569e-016
lhumerus -15.4702 -16.8158 52.3492
lradius 69.4309
lwrist 51.9532
lhand 2.309 23.8112
lfingers 7.12502
lthumb 27.8001 51.775
rfemur -36.447 4.02198 14.7527
rtibia 57.3276
rfoot -26.8575 -13.6452
rtoes -14.2533
lfemur -34.7306 -0.224712 -22.1447
ltibia 56.4335
lfoot -28.5636 9.47689
ltoes -17.1737
512
root 0.198439 16.6662 -1.28754 8.22715 -3.22102 2.36827
lowerback 13.0159 2.0158 -1.50636
upperback 0.753154 2.45648 0.120431
thorax -6.57631 1.24421 0.523376
lowerneck 3.68187 -3.72695 -5.69871
upperneck -4.06917 -5.12507 3.74985
head -1.66902 -2.55875 2.30325
rclavicle -1.60022e-014 7.95139e-016
rhumerus -10.433 13.6984 -50.4648
rradius 60.0824
rwrist -50.1345
rhand -9.36108 21.9761
rfingers 7.12502
rthumb 16.5988 -7.33403
lclavicle -1.60022e-014 7.95139e-016
lhumerus -15.9214 -16.1699 51.6355
lradius 69.2561
lwrist 51.9329
lhand 2.11152 24.045
lfingers 7.12502
lthumb 27.6112 52.0392
rfemur -36.4175 3.98588 14.6819
rtibia 57.2742
rfoot -26.847 -13.7405
rtoes -14.6037
lfemur -34.687 -0.266797 -22.2229
ltibia 56.3332
lfoot -28.5897 9.47785
ltoes -17.1288
513
root 0.198584 16.6727 -1.27502 8.2427 -3.18753 2.46728
lowerback 12.9301 2.0356 -1.58301
upperback 0.743999 2.46944 0.0658861
thorax -6.53919 1.25208 0.509355
lowerneck 3.6905 -3.73534 -5.63202
upperneck -4.07653 -5.13203 3.77256
head -1.67349 -2.56378 2.29936
rclavicle 3.18055e-015 -2.38542e-015
rhumerus -10.9656 12.8657 -49.8127
rradius 59.7611
rwrist -50.0363
rhand -9.32591 21.8813
rfingers 7.12502
rthumb 16.6327 -7.42601
lclavicle 3.18055e-015 -2.38542e-015
lhumerus -16.4074 -15.4324 50.9115
lradius 69.0886
lwrist 51.8957
lhand 2.31854 24.2435
lfingers 7.12502
lthumb 27.8092 52.2058
rfemur -36.3436 3.93048 14.5817
rtibia 57.2072
rfoot -26.8055 -13.8309
rtoes -14.7493
lfemur -34.5897 -0.322427 -22.3307
ltibia 56.23
lfoot -28.6243 9.42459
ltoes -16.8594
514
root 0.198825 16.6774 -1.2661 8.33118 -3.14374 2.44151
lowerback 12.8398 2.04624 -1.57258
upperback 0.695538 2.48743 0.07576
thorax -6.54065 1.26116 0.512597
lowerneck 3.75161 -3.73354 -5.59743
upperneck -4.17034 -5.13093 3.75257
head -1.71612 -2.56285 2.29089
rclavicle 1.75924e-014 7.95139e-016
rhumerus -11.4682 12.1047 -49.131
rradius 59.3914
rwrist -50.0124
rhand -9.36043 21.8312
rfingers 7.12502
rthumb 16.5995 -7.47893
lclavicle 1.75924e-014 7.95139e-016
lhumerus -16.9338 -14.5441 50.3314
lradius 68.8346
lwrist 51.8302
lhand 2.58163 24.2806
lfingers 7.12502
lthumb 28.0607 52.202
rfemur -36.355 3.89035 14.6149
rtibia 57.1319
rfoot -26.7789 -13.9103
rtoes -14.9232
lfemur -34.6334 -0.332359 -22.3045
ltibia 56.1602
lfoot -28.6063 9.46774
ltoes -17.1112
